HIERARCHY
ROOT root
{
	OFFSET	0	13.1	24.9
	CHANNELS 6  Xposition Yposition Zposition Xrotation Yrotation Zrotation
	JOINT spine_1
	{
		OFFSET	0	9.99999	0
		CHANNELS 3  Xrotation Yrotation Zrotation
		JOINT spine_2
		{
			OFFSET	0	112	-10
			CHANNELS 3  Xrotation Yrotation Zrotation
			JOINT spine_3
			{
				OFFSET	0	206.5	19.3
				CHANNELS 3  Xrotation Yrotation Zrotation
				JOINT spine_4
				{
					OFFSET	0	110.4	14.6
					CHANNELS 3  Xrotation Yrotation Zrotation
					JOINT neck_1
					{
						OFFSET	0	71.8	-50.3
						CHANNELS 3  Xrotation Yrotation Zrotation
						JOINT neck_2
						{
							OFFSET	0	86.2	-25.8
							CHANNELS 3  Xrotation Yrotation Zrotation
							JOINT head_ee
							{
								OFFSET	0	179.8	-8.7
								CHANNELS 3  Xrotation Yrotation Zrotation
								End Site
								{
									OFFSET	1	0	0
								}
							}
						}
					}
					JOINT left_clavicle
					{
						OFFSET	-43.2	22.4	-70.8
						CHANNELS 3  Xrotation Yrotation Zrotation
						JOINT left_shoulder
						{
							OFFSET	-93.9	-5.79999	48.7
							CHANNELS 3  Xrotation Yrotation Zrotation
							JOINT left_elbow
							{
								OFFSET	-291.4	-30.8	15.2
								CHANNELS 3  Xrotation Yrotation Zrotation
								JOINT left_lowarm_twist
								{
									OFFSET	-110.7	-3.89999	13.6
									CHANNELS 3  Xrotation Yrotation Zrotation
									JOINT left_hand
									{
										OFFSET	-110.7	-3.89999	13.6
										CHANNELS 3  Xrotation Yrotation Zrotation
										JOINT left_ee
										{
											OFFSET	-80.8	-5.10001	12.1
											CHANNELS 3  Xrotation Yrotation Zrotation
											End Site
											{
												OFFSET	1	0	0
											}
										}
									}
								}
							}
						}
					}
					JOINT right_clavicle
					{
						OFFSET	43.2	22.4	-70.8
						CHANNELS 3  Xrotation Yrotation Zrotation
						JOINT right_shoulder
						{
							OFFSET	93.9	-5.79999	48.7
							CHANNELS 3  Xrotation Yrotation Zrotation
							JOINT right_elbow
							{
								OFFSET	291.4	-30.8	15.2
								CHANNELS 3  Xrotation Yrotation Zrotation
								JOINT right_lowarm_twist
								{
									OFFSET	110.7	-3.89999	13.6
									CHANNELS 3  Xrotation Yrotation Zrotation
									JOINT right_hand
									{
										OFFSET	110.7	-3.89999	13.6
										CHANNELS 3  Xrotation Yrotation Zrotation
										JOINT right_ee
										{
											OFFSET	80.8	-5.10001	12.1
											CHANNELS 3  Xrotation Yrotation Zrotation
											End Site
											{
												OFFSET	1	0	0
											}
										}
									}
								}
							}
						}
					}
				}
			}
		}
	}
	JOINT left_hip
	{
		OFFSET	-82.8	-127.5	0.300001
		CHANNELS 3  Xrotation Yrotation Zrotation
		JOINT left_knee
		{
			OFFSET	-28.2	-396.7	2.2
			CHANNELS 3  Xrotation Yrotation Zrotation
			JOINT left_ankle
			{
				OFFSET	-11.7	-411.3	35.4
				CHANNELS 3  Xrotation Yrotation Zrotation
				JOINT left_toes
				{
					OFFSET	0	-60	-88.6
					CHANNELS 3  Xrotation Yrotation Zrotation
					JOINT left_foot_ee
					{
						OFFSET	-22.5	-16.5	-42.2
						CHANNELS 3  Xrotation Yrotation Zrotation
						End Site
						{
							OFFSET	1	0	0
						}
					}
				}
			}
		}
	}
	JOINT right_hip
	{
		OFFSET	82.8	-127.5	0.300001
		CHANNELS 3  Xrotation Yrotation Zrotation
		JOINT right_knee
		{
			OFFSET	28.2	-396.7	2.2
			CHANNELS 3  Xrotation Yrotation Zrotation
			JOINT right_ankle
			{
				OFFSET	11.7	-411.3	35.4
				CHANNELS 3  Xrotation Yrotation Zrotation
				JOINT right_toes
				{
					OFFSET	0	-60	-88.6
					CHANNELS 3  Xrotation Yrotation Zrotation
					JOINT right_foot_ee
					{
						OFFSET	22.5	-16.5	-42.2
						CHANNELS 3  Xrotation Yrotation Zrotation
						End Site
						{
							OFFSET	1	0	0
						}
					}
				}
			}
		}
	}
}
MOTION
Frames: 6
Frame Time: 0.02
1192.67643791 729.578 -1680.16883562 -2.6939415794 42.2825671469 7.32537415397 1.76326 -0.456445 -2.29733 1.76614 -0.309375 -2.3217 1.77887 0.112908 -2.33949 1.77133 -0.257885 -2.32798 -3.27314 10.9065 -1.84108 -3.06064 21.2892 -0.311044 -0.0 0.0 -0.0 5.6844 22.4715 10.6304 -23.7825 -22.6286 63.0338 0.392401 -11.0004 0.0377855 -27.0914 -1.69425 2.98818 -1.87227 2.02367 -11.6612 -0.0 0.0 -0.0 11.1796 18.8587 -22.1388 13.6876 -18.3764 -51.3307 0.367677 10.3227 -0.0332113 62.7172 2.02171 7.3528 2.12776 14.5386 -8.13229 0.0 0.0 0.0 23.3725 -9.17968 -8.13102 -64.6146 -2.71834 9.01346 35.4997 -25.9475 -5.20605 -17.7424 0.0 0.0 -0.0 0.0 -0.0 11.4109 -7.1136 -6.56303 -11.1052 -0.295597 -1.67599 38.8145 12.721 4.99157 -22.9348 0.0 0.0 0.0 0.0 0.0 
1186.50581082 728.677 -1688.94316291 -4.27281904779 43.2565459335 8.51004369361 2.01969 -0.325913 -2.14507 2.02223 -0.188789 -2.16145 2.02929 0.193358 -2.16105 2.0228 -0.150284 -2.16447 -3.23419 9.95028 -1.77935 -3.0538 19.4945 -0.390197 -0.0 0.0 -0.0 6.2779 21.2522 11.5722 -25.2431 -21.2707 60.9632 0.321582 -9.05148 0.0254545 -25.3626 -1.54536 2.82408 -1.06601 1.62851 -6.414 -0.0 0.0 -0.0 10.9603 19.5113 -21.5988 13.7104 -16.673 -51.0887 0.47462 13.2309 -0.0550452 63.6027 2.10496 7.43004 2.1708 9.81861 -10.5384 0.0 0.0 0.0 33.4356 -3.9564 -7.90623 -64.8851 -2.74993 9.04077 31.5144 -24.8316 -4.70738 -19.6158 0.0 0.0 -0.0 0.0 -0.0 11.3325 -8.51768 -6.11496 -11.452 -0.299564 -1.72904 37.6553 12.6661 4.88406 -21.9938 0.0 0.0 0.0 0.0 0.0 
1168.65127379 725.693 -1700.98711159 -4.06993806081 45.0787184081 8.30015246059 2.10495 -0.246963 -1.91817 2.10699 -0.124428 -1.92999 2.11106 0.213383 -1.92219 2.10591 -0.0928104 -1.93177 -3.57429 8.96854 -1.59204 -3.44023 17.5862 -0.286126 -0.0 0.0 -0.0 6.41451 19.3323 11.9045 -29.2645 -18.6386 60.0465 0.411092 -11.5107 0.0414338 -23.4641 -1.38766 2.63883 -0.530465 1.83233 -2.75421 -0.0 0.0 -0.0 10.3598 19.7873 -20.2254 13.4471 -15.7451 -52.1091 0.63703 17.514 -0.098129 64.2735 2.1688 7.4877 2.40972 5.72552 -13.9617 0.0 0.0 0.0 41.3608 -1.51449 -10.8072 -60.9729 -2.30595 8.63175 30.1954 -21.6004 -4.41198 -19.4826 0.0 0.0 -0.0 0.0 -0.0 8.19436 -11.1114 -5.47749 -10.7387 -0.291055 -1.61993 37.5734 18.9637 5.08583 -23.4063 0.0 0.0 0.0 0.0 0.0 
1147.48381891 724.952 -1708.42715857 -5.4882737521 48.8621940281 9.60064569509 2.56872 -0.318868 -1.86138 2.57063 -0.199799 -1.87789 2.57685 0.114724 -1.88499 2.57194 -0.184362 -1.87946 -4.28271 7.9553 -1.68135 -4.19011 15.8481 -0.436499 -0.0 0.0 -0.0 6.42082 17.6119 12.0189 -30.5059 -16.8975 59.8724 0.325339 -9.15547 0.026049 -21.4587 -1.22788 2.43765 -0.263286 -0.445227 -1.94822 -0.0 0.0 -0.0 10.2095 19.8742 -19.8816 12.4374 -14.279 -51.942 0.886349 23.7046 -0.186016 64.9532 2.23419 7.54537 3.0106 2.85255 -19.4007 0.0 0.0 0.0 43.0076 -0.708372 -11.6027 -60.0407 -2.20439 8.52994 29.1954 -20.9262 -4.26901 -19.2439 0.0 0.0 -0.0 0.0 -0.0 7.30409 -13.4279 -5.53029 -10.8901 -0.292974 -1.64308 37.9175 21.5827 5.23032 -23.6033 0.0 0.0 0.0 0.0 0.0 
1146.41724305 724.952 -1707.39538088 -5.51723733582 49.1236072322 9.63902685375 2.56872 -0.318868 -1.86138 2.57063 -0.199799 -1.87789 2.57685 0.114724 -1.88499 2.57194 -0.184362 -1.87946 -4.28271 7.9553 -1.68135 -4.19011 15.8481 -0.436499 -0.0 0.0 -0.0 6.42082 17.6119 12.0189 -30.5059 -16.8975 59.8724 0.325339 -9.15547 0.026049 -21.4587 -1.22788 2.43765 -0.263286 -0.445227 -1.94822 -0.0 0.0 -0.0 10.2095 19.8742 -19.8816 12.4374 -14.279 -51.942 0.886349 23.7046 -0.186016 64.9532 2.23419 7.54537 3.0106 2.85255 -19.4007 0.0 0.0 0.0 43.0076 -0.708372 -11.6027 -60.0407 -2.20439 8.52994 29.1954 -20.9262 -4.26901 -19.2439 0.0 0.0 -0.0 0.0 -0.0 7.30409 -13.4279 -5.53029 -10.8901 -0.292974 -1.64308 37.9175 21.5827 5.23032 -23.6033 0.0 0.0 0.0 0.0 0.0 
1102.44992488 721.588 -1716.54113043 -7.11572858171 52.4000874632 10.8167555115 2.62395 -0.0850203 -1.52939 2.62525 0.0124596 -1.5317 2.62462 0.265368 -1.5086 2.62145 0.0238116 -1.53157 -4.5808 7.61798 -0.894229 -4.51723 14.6526 0.355024 -0.0 0.0 -0.0 6.93354 16.6826 12.9002 -36.9854 -13.1558 57.7187 0.482975 -13.4554 0.0569735 -19.2723 -1.06185 2.21215 0.684704 -3.01982 3.32672 -0.0 0.0 -0.0 9.93333 23.2573 -18.9864 9.77563 -11.9318 -53.3707 1.14206 29.4978 -0.300666 60.3107 1.80166 7.13651 4.18995 -1.64092 -29.9651 0.0 0.0 0.0 44.2876 -2.56673 -11.1093 -53.6841 -1.55794 7.79393 26.037 -9.80781 -3.59477 -19.8661 0.0 0.0 -0.0 0.0 -0.0 4.75269 -17.4093 -5.72624 -11.0218 -0.294594 -1.66323 38.0656 20.2322 5.18486 -23.7966 0.0 0.0 0.0 0.0 0.0 
